<?xml version="1.0" encoding="utf-8"?>
<?xml-stylesheet type="text/xsl" href="rss1.xsl"?>
<rss version="2.0" xmlns:atom="http://www.w3.org/2005/Atom" xmlns:content="http://purl.org/rss/1.0/modules/content/" xmlns:dc="http://purl.org/dc/elements/1.1/" xmlns:media="http://search.yahoo.com/mrss/">
<channel>
 <title>Getty</title>
 <link>http://www.gettyimg.com/</link>
 <atom:link href="http://www.gettyimg.com/" rel="self" type="application/rss+xml" />

 
                <item>
                <title><![CDATA[【Requests】[REQ AUD] - Markus Schulz - We Are The Light (2018) FLAC 24 bits]]></title>
                <link><![CDATA[https://sharemania.us/threads/markus-schulz-we-are-the-light-2018-flac-24-bits.234706/]]></link>
                <description><![CDATA[<article>
<blockquote class="messageText SelectQuoteContainer ugc baseHtml">
hello guys , im looking for <a href="https://open.spotify.com/album/4wfLbiCufOqvKb8ZcZTw0s?si=zsGG2juGRUiHBXiLKsKUrQ" target="_blank" class="externalLink" rel="nofollow">Markus Schulz - We Are The Light (2018) FLAC </a> 2 discs , Thanks <br>
<br>
<img src="https://f4.bcbits.com/img/a1095099898_10.jpg" class="bbCodeImage LbImage" alt="[​IMG]" data-url="https://f4.bcbits.com/img/a1095099898_10.jpg" style="">
<div class="messageTextEndMarker">&nbsp;</div>
</blockquote>
</article>]]></description>
                <author><![CDATA[xXIMANXx]]></author>
                </item>

                
                <item>
                <title><![CDATA[【Cinema Center】SERIES - Sam &amp; Cat - Season 1 - 1080p Amazon WEB-DL DDP5.1 H.264-LAZY]]></title>
                <link><![CDATA[https://sharemania.us/threads/sam-cat-season-1-1080p-amazon-web-dl-ddp5-1-h-264-lazy.234705/]]></link>
                <description><![CDATA[<article>
<blockquote class="messageText SelectQuoteContainer ugc baseHtml">
Sam &amp; Cat:<img src="https://thetvdb.com/banners/graphical/267564-g3.jpg" class="bbCodeImage LbImage" alt="[​IMG]" data-url="https://thetvdb.com/banners/graphical/267564-g3.jpg" style=""> <br>
<br>
<div class="bbCodeBlock bbCodeQuote">
<aside>
<blockquote class="quoteContainer"><div class="quote"><i><b>Synopsis:</b></i><br>
Prepare to meet the strangest match made in bestie heaven -- Sam &amp; Cat! Sam's loud, independent, and tough as nails, while Cat is sweet as pie and super flighty. But that doesn't stop this unlikely pair from becoming best buds and roomies! Together, they're a power duo with a love for fun and adventure -- it's just too bad that it doesn't come cheap. A booming out-of-home babysitting business quickly becomes the answer to their empty-pocket problems, but also an extra reason for countless wacky adventures to come!</div><div class="quoteExpand">Click to expand...</div></blockquote>
</aside>
</div>
<div class="ToggleTriggerAnchor bbCodeSpoilerContainer">
<button type="button" class="button bbCodeSpoilerButton ToggleTrigger Tooltip JsOnly" data-target="> .SpoilerTarget"><span>Spoiler: <span class="SpoilerTitle">MediaInfo</span></span></button>
<div class="SpoilerTarget bbCodeSpoilerText">General<br>
Unique ID : 69131691038498880286306915252117598423 (0x34024785F414285FC7C32AB45C5670D7)<br>
Complete name : Sam.and.Cat.S01E01.Pilot.1080p.AMZN.WEB-DL.DDP5.1.H.264-LAZY.mkv<br>
Format : Matroska<br>
Format version : Version 4<br>
File size : 1.69 GiB<br>
Duration : 23 min 14 s<br>
Overall bit rate : 10.4 Mb/s<br>
Encoded date : UTC 2023-12-24 15:30:25<br>
Writing application : mkvmerge v63.0.0 ('Everything') 32-bit<br>
Writing library : libebml v1.4.2 + libmatroska v1.6.4<br>
<br>
Video<br>
ID : 1<br>
Format : AVC<br>
Format/Info : Advanced Video Codec<br>
Format profile : High@L4<br>
Format settings : CABAC / 4 Ref Frames<br>
Format settings, CABAC : Yes<br>
Format settings, Reference frames : 4 frames<br>
Codec ID : V_MPEG4/ISO/AVC<br>
Duration : 23 min 14 s<br>
Bit rate mode : Constant<br>
Bit rate : 10 000 kb/s<br>
Width : 1 920 pixels<br>
Height : 1 080 pixels<br>
Display aspect ratio : 16:9<br>
Frame rate mode : Constant<br>
Frame rate : 23.976 (24000/1001) FPS<br>
Color space : YUV<br>
Chroma subsampling : 4:2:0<br>
Bit depth : 8 bits<br>
Scan type : Progressive<br>
Bits/(Pixel*Frame) : 0.201<br>
Stream size : 1.58 GiB (94%)<br>
Default : Yes<br>
Forced : No<br>
Color range : Limited<br>
Color primaries : BT.709<br>
Transfer characteristics : BT.709<br>
Matrix coefficients : BT.709<br>
<br>
Audio<br>
ID : 2<br>
Format : E-AC-3<br>
Format/Info : Enhanced AC-3<br>
Commercial name : Dolby Digital Plus<br>
Codec ID : A_EAC3<br>
Duration : 23 min 14 s<br>
Bit rate mode : Constant<br>
Bit rate : 640 kb/s<br>
Channel(s) : 6 channels<br>
Channel layout : L R C LFE Ls Rs<br>
Sampling rate : 48.0 kHz<br>
Frame rate : 31.250 FPS (1536 SPF)<br>
Compression mode : Lossy<br>
Stream size : 106 MiB (6%)<br>
Language : English<br>
Service kind : Complete Main<br>
Default : Yes<br>
Forced : No<br>
<br>
Text<br>
ID : 3<br>
Format : UTF-8<br>
Codec ID : S_TEXT/UTF8<br>
Codec ID/Info : UTF-8 Plain Text<br>
Duration : 22 min 56 s<br>
Bit rate : 80 b/s<br>
Count of elements : 581<br>
Stream size : 13.5 KiB (0%)<br>
Title : SDH<br>
Language : English<br>
Default : No<br>
Forced : No</div>
</div><br>
Screenshots:<br>
<img src="https://i.imgur.com/t8m8QcJ.jpg" class="bbCodeImage LbImage" alt="[​IMG]" data-url="https://i.imgur.com/t8m8QcJ.jpg" style=""> <br>
<div class="bbCodeBlock bbCodeVfcHH HiddenContent">
<div class="attribution type">Hidden Content:</div>
<blockquote>You must either reply or click 'Like' to see the hidden information contained here.</blockquote>
</div>
<div class="messageTextEndMarker">&nbsp;</div>
</blockquote>
</article>]]></description>
                <author><![CDATA[LazyRips]]></author>
                </item>

                </channel></rss>